<?xml version="1.0" standalone="no"?>
<!DOCTYPE svg PUBLIC "-//W3C//DTD SVG 20010904//EN"
 "http://www.w3.org/TR/2001/REC-SVG-20010904/DTD/svg10.dtd">
<svg version="1.0" xmlns="http://www.w3.org/2000/svg"
 width="24.000000pt" height="24.000000pt" viewBox="0 0 24.000000 24.000000"
 preserveAspectRatio="xMidYMid meet">

<g transform="translate(0.000000,24.000000) scale(0.100000,-0.100000)"
fill="#000000" stroke="none">
<path d="M81 227 c-69 -24 -98 -116 -54 -175 39 -53 134 -60 177 -13 80 89
-10 227 -123 188z m75 -39 c4 -6 -1 -17 -11 -25 -11 -7 -13 -13 -7 -13 7 0 12
-9 12 -20 0 -11 -4 -20 -10 -20 -5 0 -10 -18 -10 -41 0 -33 -3 -40 -17 -37
-13 2 -20 17 -25 53 -8 55 -4 77 18 100 18 18 40 19 50 3z"/>
</g>
</svg>
